name baseline.mot
datacolumns 19
datarows 30
range 2.67666000000000 2.72500400000000
endheader
time	ground_force1_vx	ground_force1_vy	ground_force1_vz	ground_force1_px	ground_force1_py	ground_force1_pz	ground_force2_vx	ground_force2_vy	ground_force2_vz	ground_force2_px	ground_force2_py	ground_force2_pz	ground_torque1_x	ground_torque1_y	ground_torque1_z	ground_torque2_x	ground_torque2_y	ground_torque2_z	
2.67666000000000	6.69486500000000	719.15413999999998	53.41814100000000	0.01641100000000	0.00000000000000	0.13162600000000	0.00000000000000	0.00000000000000	0.00000000000000	0.00000000000000	0.00000000000000	0.00000000000000	0.00000000000000	0.09227700000000	0.00000000000000	0.00000000000000	0.00000000000000	0.00000000000000	
2.67832700000000	6.11109400000000	720.05981899999995	53.43201500000000	0.01536500000000	0.00000000000000	0.13164500000000	0.00000000000000	0.00000000000000	0.00000000000000	0.00000000000000	0.00000000000000	0.00000000000000	0.00000000000000	0.16582000000000	0.00000000000000	0.00000000000000	0.00000000000000	0.00000000000000	
2.67999300000000	5.51851900000000	720.96273699999995	53.44617200000000	0.01431600000000	0.00000000000000	0.13166400000000	0.00000000000000	0.00000000000000	0.00000000000000	0.00000000000000	0.00000000000000	0.00000000000000	0.00000000000000	0.24232100000000	0.00000000000000	0.00000000000000	0.00000000000000	0.00000000000000	
2.68165300000000	4.91750100000000	721.86216000000002	53.46050900000000	0.01326400000000	0.00000000000000	0.13168300000000	0.00000000000000	0.00000000000000	0.00000000000000	0.00000000000000	0.00000000000000	0.00000000000000	0.00000000000000	0.32166900000000	0.00000000000000	0.00000000000000	0.00000000000000	0.00000000000000	
2.68332500000000	4.30842400000000	722.75743699999998	53.47494500000000	0.01220900000000	0.00000000000000	0.13170300000000	0.00000000000000	0.00000000000000	0.00000000000000	0.00000000000000	0.00000000000000	0.00000000000000	0.00000000000000	0.40374700000000	0.00000000000000	0.00000000000000	0.00000000000000	0.00000000000000	
2.68499900000000	3.69168800000000	723.64800300000002	53.48941400000000	0.01115200000000	0.00000000000000	0.13172200000000	0.00000000000000	0.00000000000000	0.00000000000000	0.00000000000000	0.00000000000000	0.00000000000000	0.00000000000000	0.48843400000000	0.00000000000000	0.00000000000000	0.00000000000000	0.00000000000000	
2.68666000000000	3.06771300000000	724.53337199999999	53.50387100000000	0.01009300000000	0.00000000000000	0.13174300000000	0.00000000000000	0.00000000000000	0.00000000000000	0.00000000000000	0.00000000000000	0.00000000000000	0.00000000000000	0.57560400000000	0.00000000000000	0.00000000000000	0.00000000000000	0.00000000000000	
2.68832300000000	2.43692800000000	725.41313800000000	53.51828700000000	0.00903200000000	0.00000000000000	0.13176300000000	0.00000000000000	0.00000000000000	0.00000000000000	0.00000000000000	0.00000000000000	0.00000000000000	0.00000000000000	0.66512700000000	0.00000000000000	0.00000000000000	0.00000000000000	0.00000000000000	
2.68998600000000	1.79977800000000	726.28697199999999	53.53264900000000	0.00797000000000	0.00000000000000	0.13178400000000	0.00000000000000	0.00000000000000	0.00000000000000	0.00000000000000	0.00000000000000	0.00000000000000	0.00000000000000	0.75686800000000	0.00000000000000	0.00000000000000	0.00000000000000	0.00000000000000	
2.69165300000000	1.15671900000000	727.15461700000003	53.54696100000000	0.00690600000000	0.00000000000000	0.13180500000000	0.00000000000000	0.00000000000000	0.00000000000000	0.00000000000000	0.00000000000000	0.00000000000000	0.00000000000000	0.85069100000000	0.00000000000000	0.00000000000000	0.00000000000000	0.00000000000000	
2.69332400000000	0.50821500000000	728.01588900000002	53.56124000000000	0.00584100000000	0.00000000000000	0.13182600000000	0.00000000000000	0.00000000000000	0.00000000000000	0.00000000000000	0.00000000000000	0.00000000000000	0.00000000000000	0.94645700000000	0.00000000000000	0.00000000000000	0.00000000000000	0.00000000000000	
2.69498700000000	-0.14526300000000	728.87066900000002	53.57551700000000	0.00477500000000	0.00000000000000	0.13184800000000	0.00000000000000	0.00000000000000	0.00000000000000	0.00000000000000	0.00000000000000	0.00000000000000	0.00000000000000	1.04402500000000	0.00000000000000	0.00000000000000	0.00000000000000	0.00000000000000	
2.69665400000000	-0.80323700000000	729.71890399999995	53.58983400000000	0.00370900000000	0.00000000000000	0.13187000000000	0.00000000000000	0.00000000000000	0.00000000000000	0.00000000000000	0.00000000000000	0.00000000000000	0.00000000000000	1.14325100000000	0.00000000000000	0.00000000000000	0.00000000000000	0.00000000000000	
2.69832700000000	-1.46522800000000	730.56059800000003	53.60424700000000	0.00264200000000	0.00000000000000	0.13189200000000	0.00000000000000	0.00000000000000	0.00000000000000	0.00000000000000	0.00000000000000	0.00000000000000	0.00000000000000	1.24399200000000	0.00000000000000	0.00000000000000	0.00000000000000	0.00000000000000	
2.69998700000000	-2.13075500000000	731.39581799999996	53.61882100000000	0.00157600000000	0.00000000000000	0.13191500000000	0.00000000000000	0.00000000000000	0.00000000000000	0.00000000000000	0.00000000000000	0.00000000000000	0.00000000000000	1.34610400000000	0.00000000000000	0.00000000000000	0.00000000000000	0.00000000000000	
2.70165800000000	-2.79933500000000	732.22467800000004	53.63363100000000	0.00051000000000	0.00000000000000	0.13193800000000	0.00000000000000	0.00000000000000	0.00000000000000	0.00000000000000	0.00000000000000	0.00000000000000	0.00000000000000	1.44944300000000	0.00000000000000	0.00000000000000	0.00000000000000	0.00000000000000	
2.70332700000000	-3.47049100000000	733.04734699999995	53.64876000000000	-0.00055500000000	0.00000000000000	0.13196200000000	0.00000000000000	0.00000000000000	0.00000000000000	0.00000000000000	0.00000000000000	0.00000000000000	0.00000000000000	1.55386500000000	0.00000000000000	0.00000000000000	0.00000000000000	0.00000000000000	
2.70499000000000	-4.14374700000000	733.86403700000005	53.66429900000000	-0.00161900000000	0.00000000000000	0.13198600000000	0.00000000000000	0.00000000000000	0.00000000000000	0.00000000000000	0.00000000000000	0.00000000000000	0.00000000000000	1.65922700000000	0.00000000000000	0.00000000000000	0.00000000000000	0.00000000000000	
2.70665600000000	-4.81863400000000	734.67500299999995	53.68034500000000	-0.00268200000000	0.00000000000000	0.13201000000000	0.00000000000000	0.00000000000000	0.00000000000000	0.00000000000000	0.00000000000000	0.00000000000000	0.00000000000000	1.76538900000000	0.00000000000000	0.00000000000000	0.00000000000000	0.00000000000000	
2.70832800000000	-5.49469000000000	735.48053900000002	53.69700200000000	-0.00374300000000	0.00000000000000	0.13203500000000	0.00000000000000	0.00000000000000	0.00000000000000	0.00000000000000	0.00000000000000	0.00000000000000	0.00000000000000	1.87220900000000	0.00000000000000	0.00000000000000	0.00000000000000	0.00000000000000	
2.70999100000000	-6.17146300000000	736.28097300000002	53.71437800000000	-0.00480200000000	0.00000000000000	0.13206000000000	0.00000000000000	0.00000000000000	0.00000000000000	0.00000000000000	0.00000000000000	0.00000000000000	0.00000000000000	1.97955300000000	0.00000000000000	0.00000000000000	0.00000000000000	0.00000000000000	
2.71165300000000	-6.84851100000000	737.07666400000005	53.73258300000000	-0.00585900000000	0.00000000000000	0.13208500000000	0.00000000000000	0.00000000000000	0.00000000000000	0.00000000000000	0.00000000000000	0.00000000000000	0.00000000000000	2.08728300000000	0.00000000000000	0.00000000000000	0.00000000000000	0.00000000000000	
2.71332400000000	-7.52540600000000	737.86800000000005	53.75173400000000	-0.00691300000000	0.00000000000000	0.13211100000000	0.00000000000000	0.00000000000000	0.00000000000000	0.00000000000000	0.00000000000000	0.00000000000000	0.00000000000000	2.19526900000000	0.00000000000000	0.00000000000000	0.00000000000000	0.00000000000000	
2.71499000000000	-8.20173000000000	738.65539100000001	53.77194700000000	-0.00796400000000	0.00000000000000	0.13213700000000	0.00000000000000	0.00000000000000	0.00000000000000	0.00000000000000	0.00000000000000	0.00000000000000	0.00000000000000	2.30338200000000	0.00000000000000	0.00000000000000	0.00000000000000	0.00000000000000	
2.71665500000000	-8.87708500000000	739.43926699999997	53.79334100000000	-0.00901100000000	0.00000000000000	0.13216300000000	0.00000000000000	0.00000000000000	0.00000000000000	0.00000000000000	0.00000000000000	0.00000000000000	0.00000000000000	2.41149600000000	0.00000000000000	0.00000000000000	0.00000000000000	0.00000000000000	
2.71832600000000	-9.55108700000000	740.22007599999995	53.81603600000000	-0.01005500000000	0.00000000000000	0.13219000000000	0.00000000000000	0.00000000000000	0.00000000000000	0.00000000000000	0.00000000000000	0.00000000000000	0.00000000000000	2.51949000000000	0.00000000000000	0.00000000000000	0.00000000000000	0.00000000000000	
2.71998800000000	-10.22336900000000	740.99827900000003	53.84015200000000	-0.01109500000000	0.00000000000000	0.13221600000000	0.00000000000000	0.00000000000000	0.00000000000000	0.00000000000000	0.00000000000000	0.00000000000000	0.00000000000000	2.62724500000000	0.00000000000000	0.00000000000000	0.00000000000000	0.00000000000000	
2.72165800000000	-10.89358400000000	741.77434700000003	53.86580800000000	-0.01213000000000	0.00000000000000	0.13224300000000	0.00000000000000	0.00000000000000	0.00000000000000	0.00000000000000	0.00000000000000	0.00000000000000	0.00000000000000	2.73464700000000	0.00000000000000	0.00000000000000	0.00000000000000	0.00000000000000	
2.72332200000000	-11.56140600000000	742.54875700000002	53.89312400000000	-0.01316100000000	0.00000000000000	0.13227100000000	0.00000000000000	0.00000000000000	0.00000000000000	0.00000000000000	0.00000000000000	0.00000000000000	0.00000000000000	2.84158700000000	0.00000000000000	0.00000000000000	0.00000000000000	0.00000000000000	
2.72500400000000	-12.22652700000000	743.32199100000003	53.92221600000000	-0.01418600000000	0.00000000000000	0.13229800000000	0.00000000000000	0.00000000000000	0.00000000000000	0.00000000000000	0.00000000000000	0.00000000000000	0.00000000000000	2.94795800000000	0.00000000000000	0.00000000000000	0.00000000000000	0.00000000000000	
